Coordinates
version=1
nRows=19
nColumns=63
inDegrees=yes

Units are S.I. units (second, meters, Newtons, ...)
If the header above contains a line with 'inDegrees', this indicates whether rotational values are in degrees (yes) or radians (no).

endheader
time	pelvis_tilt	pelvis_list	pelvis_rotation	pelvis_tx	pelvis_ty	pelvis_tz	hip_flexion_r	hip_adduction_r	hip_rotation_r	knee_angle_r	knee_angle_r_beta	ankle_angle_r	subtalar_angle_r	mtp_angle_r	hip_flexion_l	hip_adduction_l	hip_rotation_l	knee_angle_l	knee_angle_l_beta	ankle_angle_l	subtalar_angle_l	mtp_angle_l	L5_S1_Flex_Ext	L5_S1_Lat_Bending	L5_S1_axial_rotation	L4_L5_Flex_Ext	L4_L5_Lat_Bending	L4_L5_axial_rotation	L3_L4_Flex_Ext	L3_L4_Lat_Bending	L3_L4_axial_rotation	L2_L3_Flex_Ext	L2_L3_Lat_Bending	L2_L3_axial_rotation	L1_L2_Flex_Ext	L1_L2_Lat_Bending	L1_L2_axial_rotation	L1_T12_Flex_Ext	L1_T12_Lat_Bending	L1_T12_axial_rotation	Abs_r3	Abs_r2	Abs_r1	Abs_t1	Abs_t2	neck_flexion	neck_bending	neck_rotation	arm_flex_r	arm_add_r	arm_rot_r	elbow_flex_r	pro_sup_r	wrist_flex_r	wrist_dev_r	arm_flex_l	arm_add_l	arm_rot_l	elbow_flex_l	pro_sup_l	wrist_flex_l	wrist_dev_l
7.689655	-1.746510	-14.663068	95.947031	0.172213	0.444219	1.056608	29.097625	-4.461483	-7.365331	24.080297	0.420280	41.346213	7.387255	0.000000	26.773944	5.246238	10.735642	16.527125	0.288453	34.737936	-14.147291	0.000000	-0.043403	-0.578411	-0.840781	-0.080604	-0.769287	-0.893329	-0.071307	-1.406348	-0.893329	-0.049606	-1.406348	-0.735683	-0.040304	-1.179496	-0.683134	-0.024801	-0.895958	-0.630585	-0.310025	-6.543100	-4.676170	0.000000	0.000000	21.729530	-1.497722	-30.124735	18.024420	-12.182276	72.598131	32.122646	83.021945	-11.725710	0.406270	19.078537	-25.249211	80.614950	44.584978	88.425885	-10.734342	6.948186
7.706897	-1.718054	-14.735398	95.785242	0.171488	0.444022	1.055678	29.070872	-4.459339	-7.565892	23.971294	0.418378	41.339489	7.838828	0.000000	26.761218	5.246263	10.907063	16.481897	0.287663	34.935561	-14.478266	0.000000	0.008503	-0.545336	-0.824202	0.015791	-0.725296	-0.875715	0.013970	-1.325929	-0.875715	0.009718	-1.325929	-0.721177	0.007896	-1.112048	-0.669664	0.004859	-0.844725	-0.618152	0.060736	-6.168946	-4.583965	0.000000	0.000000	22.915893	-2.005687	-27.342381	19.000551	-12.208693	77.825165	32.191355	80.207705	-10.986739	0.879715	20.475949	-24.955345	83.471469	45.038487	88.250124	-11.158273	7.062909
7.724138	-1.664739	-14.736721	95.553067	0.170752	0.443925	1.054482	28.931333	-4.407084	-7.793668	23.789339	0.415202	41.304531	8.401460	0.000000	26.654123	5.197197	11.059261	16.416722	0.286526	35.165776	-14.808520	0.000000	0.060898	-0.500898	-0.796305	0.113093	-0.666194	-0.846074	0.100049	-1.217883	-0.846074	0.069600	-1.217883	-0.696767	0.056550	-1.021431	-0.646998	0.034797	-0.775891	-0.597229	0.434988	-5.666256	-4.428808	0.000000	0.000000	23.886746	-2.460393	-23.951571	19.860570	-12.150164	82.645637	32.321152	75.722759	-9.996078	1.327340	21.682327	-24.424147	85.376953	45.373512	88.087751	-11.828256	6.851424
7.741379	-1.599920	-14.658311	95.254005	0.170101	0.443941	1.053028	28.671652	-4.310718	-8.017168	23.532659	0.410722	41.264295	9.058542	0.000000	26.429809	5.103974	11.167687	16.303018	0.284541	35.408200	-15.118887	0.000000	0.112682	-0.451700	-0.752763	0.209262	-0.600761	-0.799811	0.185125	-1.098263	-0.799811	0.128784	-1.098263	-0.658668	0.104636	-0.921107	-0.611620	0.064386	-0.699683	-0.564573	0.804876	-5.109721	-4.186644	0.000000	0.000000	24.567874	-2.816059	-20.230139	20.510403	-11.999580	86.651075	32.523408	69.863142	-8.787317	1.652062	22.639046	-23.671212	86.178515	45.617599	87.941763	-12.631335	6.331141
7.758621	-1.557020	-14.502338	94.861221	0.169706	0.444089	1.051309	28.299855	-4.184477	-8.180280	23.201704	0.404946	41.243759	9.792400	0.000000	26.071359	4.980160	11.175280	16.104333	0.281074	35.624147	-15.395221	0.000000	0.163049	-0.408424	-0.680023	0.302798	-0.543203	-0.722524	0.267873	-0.993041	-0.722524	0.186349	-0.993041	-0.595020	0.151407	-0.832858	-0.552518	0.093166	-0.632648	-0.510017	1.164642	-4.620170	-3.782082	0.000000	0.000000	24.905320	-3.014405	-16.565146	20.881886	-11.721877	89.661742	32.797594	62.058871	-7.344714	1.507736	23.303948	-22.752197	85.855443	45.802329	87.835851	-13.420085	5.531400
7.775862	-1.549120	-14.285604	94.440081	0.169562	0.444368	1.049366	27.830285	-4.066885	-8.339436	22.805825	0.398037	41.274816	10.608556	0.000000	25.598325	4.855724	11.118336	15.821981	0.276146	35.801377	-15.611925	0.000000	0.211147	-0.377627	-0.584288	0.392122	-0.502244	-0.620806	0.346894	-0.918163	-0.620806	0.241320	-0.918163	-0.511252	0.196072	-0.770057	-0.474734	0.120650	-0.584944	-0.438216	1.508205	-4.271794	-3.249637	0.000000	0.000000	24.879330	-3.026421	-13.251053	20.852156	-11.334032	90.945697	33.145704	54.574590	-5.934548	1.046410	23.660081	-21.721518	84.509507	45.964937	87.827781	-14.002309	4.665436
7.793103	-1.569248	-14.002886	94.013511	0.169677	0.444816	1.047228	27.251514	-3.951924	-8.484868	22.334274	0.389807	41.352471	11.463421	0.000000	25.005054	4.726841	10.990127	15.451759	0.269684	35.934426	-15.745905	0.000000	0.254288	-0.362015	-0.465005	0.472239	-0.481480	-0.494068	0.417770	-0.880203	-0.494068	0.290626	-0.880203	-0.406879	0.236132	-0.738221	-0.377817	0.145300	-0.560761	-0.348754	1.816355	-4.095185	-2.586219	0.000000	0.000000	24.484583	-2.853234	-10.561252	20.463365	-10.869697	90.511837	33.550445	48.590237	-4.854031	0.393247	23.736541	-20.603538	82.375184	46.031827	88.044562	-14.171413	3.722415
7.810345	-1.612891	-13.658043	93.608202	0.169996	0.445440	1.044904	26.565094	-3.845128	-8.619566	21.789803	0.380304	41.474974	12.328034	0.000000	24.294371	4.599689	10.812911	14.992819	0.261674	36.034013	-15.797469	0.000000	0.292996	-0.361550	-0.332770	0.544124	-0.480862	-0.353568	0.481364	-0.879073	-0.353568	0.334866	-0.879073	-0.291174	0.272077	-0.737273	-0.270376	0.167418	-0.560041	-0.249578	2.092844	-4.089929	-1.850767	0.000000	0.000000	23.740901	-2.486865	-8.550071	19.861874	-10.350060	88.871046	33.950662	44.371894	-4.256503	-0.347379	23.548471	-19.429834	79.709108	45.977460	88.594149	-13.817865	2.839687
7.827586	-1.689426	-13.247285	93.224682	0.170547	0.446242	1.042418	25.771274	-3.752179	-8.721945	21.181687	0.369690	41.652922	13.164357	0.000000	23.451276	4.486947	10.654524	14.428066	0.251817	36.089577	-15.844509	0.000000	0.325602	-0.376128	-0.204215	0.604675	-0.500250	-0.216978	0.534931	-0.914517	-0.216978	0.372130	-0.914517	-0.178688	0.302354	-0.767000	-0.165924	0.186049	-0.582622	-0.153161	2.325741	-4.254831	-1.135781	0.000000	0.000000	22.721246	-1.936657	-7.106474	19.283772	-9.689890	87.221821	34.167834	41.708091	-4.489860	-1.152489	23.074064	-18.255455	76.675247	45.792851	89.392239	-12.915597	2.174901
7.844828	-1.769526	-12.784814	92.913440	0.171209	0.447179	1.039853	24.889839	-3.669570	-8.848141	20.527325	0.358269	41.870236	13.961065	0.000000	22.521213	4.380190	10.541260	13.805672	0.240954	36.140736	-15.864014	0.000000	0.350344	-0.399342	-0.096390	0.650624	-0.531125	-0.102415	0.575580	-0.970961	-0.102415	0.400408	-0.970961	-0.084342	0.325329	-0.814339	-0.078317	0.200186	-0.618581	-0.072293	2.502471	-4.517440	-0.536094	0.000000	0.000000	21.561596	-1.248612	-6.128319	18.810572	-8.813076	86.197512	34.101622	40.719090	-5.473921	-1.885454	22.356502	-17.085231	73.583312	45.420581	90.172426	-11.581180	1.769972
7.862069	-1.852039	-12.286942	92.679523	0.171896	0.448190	1.037311	23.956797	-3.607950	-8.995482	19.862501	0.346666	42.126294	14.694031	0.000000	21.542178	4.290103	10.478786	13.160593	0.229696	36.204801	-15.865925	0.000000	0.365333	-0.429143	-0.010941	0.678460	-0.570760	-0.011625	0.600206	-1.043418	-0.011625	0.417539	-1.043418	-0.009574	0.339248	-0.875108	-0.008890	0.208751	-0.664742	-0.008206	2.609537	-4.854550	-0.060853	0.000000	0.000000	20.404453	-0.477640	-5.644351	18.478919	-7.733785	86.033456	33.756745	41.266002	-7.013835	-2.506253	21.513388	-15.909510	71.056761	44.831094	90.166762	-9.977937	1.475605
7.879310	-1.888796	-11.758221	92.575184	0.172447	0.449220	1.034855	22.964182	-3.528893	-9.206117	19.163104	0.334459	42.395373	15.338523	0.000000	20.548077	4.188708	10.529277	12.533685	0.218754	36.298113	-15.876849	0.000000	0.368211	-0.456259	0.039171	0.683805	-0.606824	0.041619	0.604934	-1.109347	0.041619	0.420828	-1.109347	0.034275	0.341921	-0.930403	0.031826	0.210396	-0.706745	0.029378	2.630094	-5.161289	0.217857	0.000000	0.000000	19.361852	0.293997	-5.543638	18.240143	-6.555876	86.410757	33.247768	43.382665	-8.749995	-2.930478	20.577668	-14.719354	69.267229	44.039542	89.026806	-8.260709	1.178022
7.896552	-1.891107	-11.254683	92.580304	0.172844	0.450168	1.032632	22.031018	-3.460064	-9.459812	18.538584	0.323559	42.694711	15.874094	0.000000	19.639380	4.096410	10.654354	12.001434	0.209465	36.400562	-15.897953	0.000000	0.364818	-0.480986	0.065813	0.677504	-0.639712	0.069926	0.599360	-1.169470	0.069926	0.416951	-1.169470	0.057586	0.338770	-0.980827	0.053473	0.208457	-0.745048	0.049360	2.605859	-5.441012	0.366032	0.000000	0.000000	18.499936	1.042066	-5.814728	18.096150	-5.310302	87.411557	32.552405	46.897035	-10.614778	-3.230694	19.658620	-13.530983	68.362727	43.060293	86.927753	-6.450296	0.953085
7.913793	-1.860077	-10.759274	92.696339	0.173095	0.451075	1.030553	21.107906	-3.385222	-9.752639	17.934690	0.313019	42.993968	16.302798	0.000000	18.777314	4.001985	10.821542	11.531427	0.201261	36.505615	-15.879646	0.000000	0.354308	-0.502283	0.062947	0.657986	-0.668036	0.066881	0.582093	-1.221250	0.066881	0.404939	-1.221250	0.055079	0.329011	-1.024255	0.051145	0.202452	-0.778036	0.047210	2.530789	-5.681922	0.350093	0.000000	0.000000	17.798577	1.720306	-6.360646	18.040572	-4.017022	89.063392	31.672084	51.683780	-12.650287	-3.437101	18.746836	-12.391200	68.264760	41.929081	83.937254	-4.752287	0.637511
7.931034	-1.799254	-10.280048	92.915806	0.173197	0.451936	1.028609	20.202108	-3.298676	-10.065575	17.347088	0.302764	43.285379	16.621708	0.000000	17.966987	3.906078	11.055463	11.119870	0.194078	36.583002	-15.853039	0.000000	0.339634	-0.520175	0.041647	0.630734	-0.691833	0.044250	0.557985	-1.264753	0.044250	0.388168	-1.264753	0.036441	0.315384	-1.060741	0.033838	0.194067	-0.805751	0.031235	2.425971	-5.884324	0.231626	0.000000	0.000000	17.228874	2.303723	-7.124563	18.008533	-2.792932	90.892609	30.722158	57.654906	-14.640337	-3.489781	17.961151	-11.297160	69.249479	40.690638	80.087562	-3.355807	0.183811
7.948276	-1.719948	-9.819015	93.218394	0.173168	0.452758	1.026760	19.314564	-3.199779	-10.382557	16.773173	0.292747	43.562658	16.839081	0.000000	17.202292	3.810737	11.351907	10.755761	0.187723	36.622581	-15.817487	0.000000	0.323412	-0.534896	0.010964	0.600608	-0.711412	0.011649	0.531333	-1.300547	0.011649	0.369627	-1.300547	0.009594	0.300320	-1.090760	0.008908	0.184798	-0.828554	0.008223	2.310099	-6.050852	0.060979	0.000000	0.000000	16.790857	2.765081	-7.978358	17.958673	-1.709084	92.641573	29.769317	64.682658	-16.512823	-3.377726	17.379795	-10.259369	71.393536	39.405606	75.575685	-2.350622	-0.411711
7.965517	-1.596838	-9.387950	93.609580	0.172938	0.453544	1.025003	18.446449	-3.072981	-10.739337	16.191840	0.282601	43.803756	16.988187	0.000000	16.501710	3.701467	11.739976	10.447390	0.182341	36.631739	-15.777102	0.000000	0.309300	-0.540412	-0.028472	0.574401	-0.718748	-0.030251	0.508149	-1.313958	-0.030251	0.353499	-1.313958	-0.024913	0.287216	-1.102008	-0.023133	0.176734	-0.837098	-0.021354	2.209299	-6.113249	-0.158352	0.000000	0.000000	16.502458	3.051669	-8.701701	17.859693	-0.851406	94.055510	28.904013	72.287294	-18.048248	-3.049373	17.016887	-9.270759	74.533944	38.096730	70.704772	-1.866440	-1.200570
7.982759	-1.417343	-8.967006	94.075095	0.172472	0.454349	1.023320	17.570517	-2.905644	-11.159350	15.590664	0.272108	44.007267	17.118679	0.000000	15.840734	3.563384	12.242423	10.189133	0.177834	36.625664	-15.741442	0.000000	0.294882	-0.530704	-0.081403	0.547626	-0.705837	-0.086491	0.484462	-1.290354	-0.086491	0.337021	-1.290354	-0.071228	0.273828	-1.082212	-0.066140	0.168496	-0.822061	-0.061053	2.106315	-6.003433	-0.452741	0.000000	0.000000	16.408040	3.131291	-8.981254	17.824598	-0.238063	95.582778	28.162481	79.002971	-19.271022	-2.616351	16.831240	-8.360818	78.264888	36.830535	65.672576	-1.853228	-2.145220
8.000000	-1.184633	-8.569555	94.586638	0.171790	0.455174	1.021734	16.700369	-2.691491	-11.619831	14.960581	0.261111	44.148956	17.226260	0.000000	15.234799	3.394449	12.839284	9.983470	0.174244	36.607081	-15.709665	0.000000	0.280717	-0.504259	-0.147763	0.521319	-0.670665	-0.156998	0.461189	-1.226056	-0.156998	0.320831	-1.226056	-0.129292	0.260673	-1.028285	-0.120057	0.160401	-0.781097	-0.110822	2.005130	-5.704281	-0.821811	0.000000	0.000000	16.562698	2.953226	-8.706116	17.838982	0.122843	97.044194	27.609296	84.483848	-20.110139	-2.004230	16.793366	-7.567962	82.223179	35.679041	60.645063	-2.326855	-3.257740
